<svg 
 xmlns="http://www.w3.org/2000/svg"
 xmlns:xlink="http://www.w3.org/1999/xlink"
 width="0.333in" height="0.306in">
<path fill-rule="evenodd"  fill="rgb(7, 161, 205)"
 d="M22.002,0.015 L1.998,0.015 C0.895,0.015 -0.002,0.911 -0.002,2.015 L-0.002,16.022 C-0.002,17.127 0.895,18.022 1.998,18.022 L16.038,18.022 L20.000,21.985 L20.000,18.022 L22.002,18.022 C23.105,18.022 24.002,17.127 24.002,16.022 L24.002,2.015 C24.002,0.911 23.105,0.015 22.002,0.015 ZM8.000,9.991 C7.449,9.991 7.000,9.542 7.000,8.991 C7.000,8.439 7.449,7.991 8.000,7.991 C8.553,7.991 9.000,8.439 9.000,8.991 C9.000,9.542 8.553,9.991 8.000,9.991 ZM12.000,10.022 C11.447,10.022 11.000,9.574 11.000,9.022 C11.000,8.470 11.447,8.022 12.000,8.022 C12.554,8.022 13.001,8.470 13.001,9.022 C13.001,9.574 12.554,10.022 12.000,10.022 ZM16.001,10.022 C15.448,10.022 15.001,9.574 15.001,9.022 C15.001,8.470 15.448,8.022 16.001,8.022 C16.553,8.022 17.000,8.470 17.000,9.022 C17.000,9.574 16.553,10.022 16.001,10.022 Z"/>
</svg>